<?xml version="1.0" encoding="iso-8859-1"?>
<!-- Uploaded to: SVG Repo, www.svgrepo.com, Generator: SVG Repo Mixer Tools -->
<svg fill="#000000" height="800px" width="800px" version="1.1" id="Layer_1" xmlns="http://www.w3.org/2000/svg" xmlns:xlink="http://www.w3.org/1999/xlink" 
	 viewBox="0 0 512.001 512.001" xml:space="preserve">
<g>
	<g>
		<path d="M348.729,14.645H164.856c-17.044,0-31.291,13.49-31.291,30.534v57.338h0.381h23.052V76.643
			c1.172,0.156,2.288,0.098,3.102,0.098h194.902v25.776h0.86h22.573V45.179C378.435,28.135,365.773,14.645,348.729,14.645z
			 M355.002,53.309H160.1c-0.814,0-1.931-0.122-3.102,0.035v-8.165c0-3.933,3.925-5.93,7.858-5.93h183.874
			c3.933,0,6.273,1.996,6.273,5.93V53.309z"/>
	</g>
</g>
<g>
	<g>
		<path d="M510.412,225.538H3.174c-0.814,0-2.002,0.262-3.174,0.107v254.25c0,9.086,8.187,17.462,17.274,17.462h479.037
			c9.087,0,15.689-8.376,15.689-17.462v-254.25C512.001,225.8,511.227,225.538,510.412,225.538z M458.103,443.46H53.897
			c-6.567,0-11.888-5.736-11.888-12.302s5.322-12.302,11.888-12.302h404.205c6.567,0,11.888,5.736,11.888,12.302
			S464.669,443.46,458.103,443.46z M458.103,363.789H53.897c-6.567,0-11.888-5.15-11.888-11.716s5.322-11.716,11.888-11.716h404.205
			c6.567,0,11.888,5.15,11.888,11.716S464.669,363.789,458.103,363.789z"/>
	</g>
</g>
<g>
	<g>
		<path d="M496.311,125.95H187.46v71.401c0,1.692-0.771,3.583-1.408,4.754h324.36c0.814,0,1.589,0.083,1.589,0.239v-59.273
			C512,133.986,505.398,125.95,496.311,125.95z"/>
	</g>
</g>
<g>
	<g>
		<path d="M162.856,197.351V125.95H17.274C8.187,125.95,0,133.986,0,143.072v59.273c1.172-0.156,2.36-0.239,3.174-0.239h161.093
			C163.629,200.934,162.856,199.043,162.856,197.351z M63.407,186.254c-10.221,0-18.507-8.286-18.507-18.507
			s8.286-18.507,18.507-18.507s18.506,8.286,18.506,18.507S73.627,186.254,63.407,186.254z M120.987,186.254
			c-10.22,0-18.507-8.286-18.507-18.507s8.286-18.507,18.507-18.507s18.506,8.286,18.506,18.507S131.207,186.254,120.987,186.254z"
			/>
	</g>
</g>
</svg>